# xmcd
#
# Track frame offsets:
#	150
#	15965
#	27473
#	43385
#	58203
#	72735
#	87343
#	100535
#	110453
#	123225
#	138263
#	152263
#	165140
#	172695
#	187418
#
# Disc length: 2670 seconds
#
# Revision: 2
# Processed by: cddbd v1.5.2PL0 Copyright (c) Steve Scherf et al.
# Submitted via: audiograbber 1.83.01
#
DISCID=be0a6c0f
DTITLE=MS® - Te Acuerdas? Vol.1
DYEAR=1987
DGENRE=Ballad
TTITLE0=Miguel Bose - Te Amare
TTITLE1=Sandro - Rosa Rosa
TTITLE2=Gualberto Castro - Que Mal Amada Estas
TTITLE3=Pasquale - Amante De Acasion
TTITLE4=Yoshio - Estreno
TTITLE5=Muecas - Que Ironia
TTITLE6=Piero - De Vez En Cuando Viene
TTITLE7=Leo Dan - Hay Una Chica En Mi Camino
TTITLE8=Lolita - No Notas Que Estoy Temblando
TTITLE9=Sonia Rivas - Aquella Flor Y Tu Voz
TTITLE10=Victor Manuel - Quiero Abrazarte Tanto
TTITLE11=Manoella Torres - El Ultimo Verano
TTITLE12=Leo Dan - Porque Jamas Te Olvido
TTITLE13=Luis Aguile - Amor De Flacos
TTITLE14=Albert Hammond - Que Seas Feliz
EXTD=MS®
EXTT0=
EXTT1=
EXTT2=
EXTT3=
EXTT4=
EXTT5=
EXTT6=
EXTT7=
EXTT8=
EXTT9=
EXTT10=
EXTT11=
EXTT12=
EXTT13=
EXTT14=
PLAYORDER=
